.
..............................Site Info...........................

 -   http://www.scenetime.com  *_*    SceneTime is going to open Sign Up for few days on jul/10.


Scenetime .Always on time . friendly online private torrent community ..

     We care to share . Join us on  http://www.scenetime.com 

    Be the first to get new release at  http://www.scenetime.com

        Seed back for speed


...................................NFO:.................................................Format                           : AVI
Format/Info                      : Audio Video Interleave
Format profile                   : OpenDML
File size                        : 1.28 GiB
Duration                         : 1h 24mn
Overall bit rate                 : 2 175 Kbps
Writing application              : AVI-Mux GUI 1.17.8.3, Feb 16 201019:42:50

Video
ID                               : 0
Format                           : MPEG-4 Visual
Format profile                   : Advanced Simple@L5
Format settings, BVOP            : Yes
Format settings, QPel            : No
Format settings, GMC             : No warppoints
Format settings, Matrix          : Default (H.263)
Muxing mode                      : Packed bitstream
Codec ID                         : XVID
Codec ID/Hint                    : XviD
Duration                         : 1h 24mn
Bit rate                         : 1 946 Kbps
Width                            : 720 pixels
Height                           : 304 pixels
Display aspect ratio             : 2.35:1
Frame rate                       : 23.976 fps
Color space                      : YUV
Chroma subsampling               : 4:2:0
Bit depth                        : 8 bits
Scan type                        : Progressive
Bits/(Pixel*Frame)               : 0.371
Stream size                      : 1.15 GiB (89%)
Writing library                  : XviD 64

Audio
ID                               : 1
Format                           : AC-3
Format/Info                      : Audio Coding 3
Mode extension                   : CM (complete main)
Codec ID                         : 2000
Duration                         : 1h 24mn
Bit rate mode                    : Constant
Bit rate                         : 224 Kbps
Channel(s)                       : 6 channels
Channel positions                : Front: L C R, Side: L R, LFE
Sampling rate                    : 48.0 KHz
Bit depth                        : 16 bits
Stream size                      : 135 MiB (10%)
Alignment                        : Aligned on interleaves
Interleave, duration             : 64 ms (1.53 video frames)
Interleave, preload duration     : 192 ms